# AST/ASF file generated using VICON BodyLanguage
# -----------------------------------------------
:version 1.10
:name VICON
:units
  mass 1.0
  length 0.45
  angle deg
:documentation
   .ast/.asf automatically generated from VICON data using
   VICON BodyBuilder and BodyLanguage model FoxedUp or BRILLIANT.MOD
:root
   order TX TY TZ RX RY RZ
   axis XYZ
   position 0 0 0  
   orientation 0 0 0 
:bonedata
  begin
     id 1 
     name lhipjoint
     direction 0.693937 -0.600361 0.397515 
     length 2.37164 
     axis 0 0 0  XYZ
  end
  begin
     id 2 
     name lfemur
     direction 0.34202 -0.939693 0  
     length 6.18497  
     axis 0 0 20  XYZ
    dof rx ry rz
    limits (-160.0 20.0)
           (-70.0 70.0)
           (-60.0 70.0)
  end
  begin
     id 3 
     name ltibia
     direction 0.34202 -0.939693 0   
     length 6.91601   
     axis 0 0 20   XYZ
    dof rx
    limits (-10.0 170.0)
  end
  begin
     id 4 
     name lfoot
     direction 0.0978718 -0.2689 0.958182   
     length 1.81453   
     axis -90 7.62852e-016 20   XYZ
    dof rx rz
    limits (-45.0 90.0)
           (-70.0 20.0)
  end
  begin
     id 5 
     name ltoes
     direction 1.53569e-011 -4.21951e-011 1   
     length 0.912052   
     axis -90 7.62852e-016 20   XYZ
    dof rx
    limits (-90.0 20.0)
  end
  begin
     id 6 
     name rhipjoint
     direction -0.643996 -0.637876 0.422354   
     length 2.23216  
     axis 0 0 0  XYZ 
  end
  begin
     id 7 
     name rfemur
     direction -0.34202 -0.939693 0   
     length 6.15404   
     axis 0 0 -20   XYZ
    dof rx ry rz
    limits (-160.0 20.0)
           (-70.0 70.0)
           (-70.0 60.0)
  end
  begin
     id 8 
     name rtibia
     direction -0.34202 -0.939693 0   
     length 6.86744   
     axis 0 0 -20   XYZ
    dof rx
    limits (-10.0 170.0)
 end
 begin
     id 9 
     name rfoot
     direction -0.118701 -0.326127 0.937844   
     length 1.9243  
     axis -90 -7.62852e-016 -20   XYZ
    dof rx rz
    limits (-45.0 90.0)
           (-20.0 70.0)
  end
  begin
     id 10 
     name rtoes
     direction -1.5356e-011 -4.2181e-011 1   
     length 0.958865   
     axis -90 -7.62852e-016 -20   XYZ
    dof rx
    limits (-90.0 20.0)
  end
  begin
     id 11 
     name lowerback
     direction 0.0310826 0.968686 -0.246334   
     length 2.00021   
     axis 0 0 0   XYZ
    dof rx ry rz
    limits (-20.0 45.0)
           (-30.0 30.0)
           (-30.0 30.0)
  end
  begin
     id 12 
     name upperback
     direction -0.0152834 0.999474 -0.0286152   
     length 2.03728   
     axis 0 0 0   XYZ
    dof rx ry rz
    limits (-20.0 45.0)
           (-30.0 30.0)
           (-30.0 30.0)
  end
  begin
     id 13 
     name thorax
     direction -0.0323701 0.996236 0.0804149   
     length 2.16   
     axis 0 0 0   XYZ
    dof rx ry rz
    limits (-20.0 45.0)
           (-30.0 30.0)
           (-30.0 30.0)
  end
  begin
     id 14 
     name lowerneck
     direction 0.0307935 0.982251 0.185027   
     length 1.43558   
     axis 0 0 0   XYZ
    dof rx ry rz
    limits (-20.0 45.0)
           (-30.0 30.0)
           (-30.0 30.0)
  end
  begin
     id 15 
     name upperneck
     direction -0.0927153 0.994775 0.0427454   
     length 1.44603   
     axis 0 0 0   XYZ
    dof rx ry rz
    limits (-20.0 45.0)
           (-30.0 30.0)
           (-30.0 30.0)
  end
  begin
     id 16
     name head
     direction -0.0341265 0.999406 -0.00472033  
     length 1.45931  
     axis 0 0 0   XYZ
    dof rx ry rz
    limits (-20.0 45.0)
           (-30.0 30.0)
           (-30.0 30.0)
  end
  begin
     id 17 
     name lclavicle
     direction 0.820755 0.555306 -0.134151  
     length 2.66075  
     axis 0 0 0   XYZ
    dof ry rz
    limits (-20.0 10.0)
           (0.0 20.0)
  end
  begin
     id 18 
     name lhumerus
     direction 1 -4.48971e-011 5.24853e-027   
     length 5.0546   
     axis -180 -30 -90   XYZ
    dof rx ry rz
    limits (-60.0 90.0)
           (-90.0 90.0)
           (-90.0 90.0)
  end
  begin
     id 19
     name lradius
     direction 1 -4.48971e-011 2.76575e-028   
     length 3.39013   
     axis -180 -30 -90   XYZ
    dof rx
    limits (-10.0 170.0)
  end
  begin
     id 20
     name lwrist
     direction 1 -4.48939e-011 -2.27826e-027   
     length 1.69507   
     axis 2.17013e-015 90 90   XYZ
    dof ry
    limits (-180.0 0.0)
 end
  begin
     id 21 
     name lhand
     direction 1 -4.49009e-011 -4.55652e-027   
     length 0.572425   
     axis 2.90745e-015 90 90   XYZ
    dof rx rz
    limits (-90.0 90.0)
           (-45.0 45.0)
  end
  begin
     id 22 
     name lfingers
     direction 1 -4.48955e-011 -9.11303e-027   
     length 0.461504   
     axis 5.81489e-015 90 90   XYZ
    dof rx
    limits (0.0 90.0)
  end
  begin
     id 23
     name lthumb
     direction 0.707107 -6.34929e-011 0.707107   
     length 0.66263   
     axis -90 45 2.85299e-015   XYZ
    dof rx rz
    limits (-45.0 45.0)
           (-45.0 45.0)
  end
  begin
     id 24 
     name rclavicle
     direction -0.754477 0.632921 -0.173712   
     length 2.73081  
     axis 0 0 0   XYZ 
    dof ry rz
    limits (-10.0 20.0)
           (-20.0 0.0)
  end
  begin
     id 25 
     name rhumerus
     direction -1 -4.48969e-011 5.1496e-027  
     length 5.0701   
     axis -180 30 90   XYZ
    dof rx ry rz
    limits (-90.0 60.0)
           (-90.0 90.0)
           (-90.0 90.0)
  end
  begin
     id 26 
     name rradius
     direction -1 -4.48967e-011 -7.15624e-028   
     length 3.14957   
     axis -180 30 90   XYZ
    dof rx
    limits (-10.0 170.0)
  end
  begin
     id 27 
     name rwrist
     direction -1 -4.48938e-011 -2.27826e-027   
     length 1.57479   
     axis 2.17013e-015 -90 -90   XYZ
    dof ry
    limits (-180.0 0.0)
  end
  begin
     id 28
     name rhand
     direction -1 -4.49008e-011 -4.55652e-027   
     length 0.718191   
     axis 2.90745e-015 -90 -90   XYZ
    dof rx rz
    limits (-90.0 90.0)
           (-45.0 45.0)
  end
  begin
     id 29
     name rfingers
     direction -1 -4.48953e-011 -9.11303e-027   
     length 0.579024   
     axis 5.81489e-015 -90 -90   XYZ
    dof rx
    limits (0.0 90.0)
  end
  begin
     id 30
     name rthumb
     direction -0.707107 -6.34937e-011 0.707107   
     length 0.831366   
     axis -90 -45 -2.85299e-015   XYZ
    dof rx rz
    limits (-45.0 45.0)
           (-45.0 45.0)
  end
:hierarchy
  begin
    root lhipjoint rhipjoint lowerback
    lhipjoint lfemur
    lfemur ltibia
    ltibia lfoot
    lfoot ltoes
    rhipjoint rfemur
    rfemur rtibia
    rtibia rfoot
    rfoot rtoes
    lowerback upperback
    upperback thorax
    thorax lowerneck lclavicle rclavicle
    lowerneck upperneck
    upperneck head
    lclavicle lhumerus
    lhumerus lradius
    lradius lwrist
    lwrist lhand lthumb
    lhand lfingers
    rclavicle rhumerus
    rhumerus rradius
    rradius rwrist
    rwrist rhand rthumb
    rhand rfingers
  end

#!OML:ASF H:\Male1\Project 1\Capture day 1\Session 1\Male1.ASF
:FULLY-SPECIFIED
:DEGREES
79
root 7.56449 15.4951 -0.450785 174.619 -59.015 -176.929
lowerback 5.47927 0.25237 -3.67641
upperback 4.44649 0.0185821 -1.33092
thorax 1.50565 -0.139105 0.688432
lowerneck -3.45955 -5.6153 1.76139
upperneck 3.12925 -7.75527 3.33624
head 1.62314 -3.79903 0.552443
rclavicle -4.34344e-014 3.73715e-014
rhumerus 0.617292 11.0794 -67.2496
rradius 132.196
rwrist -28.466
rhand -33.1433 9.4539
rfingers 7.12502
rthumb -6.3526 -20.4308
lclavicle -4.34344e-014 3.73715e-014
lhumerus -33.6869 13.9754 76.6569
lradius 31.6112
lwrist -0.480191
lhand -19.4134 13.7591
lfingers 7.12502
lthumb 6.90613 43.6265
rfemur -4.93713 12.4263 22.5294
rtibia 22.7883
rfoot -35.9234 -31.6666
rtoes -0.321847
lfemur -4.37032 -11.9505 -20.8215
ltibia 25.902
lfoot -29.7525 28.7442
ltoes 12.1262
80
root 7.59234 15.4965 -0.434148 174.562 -58.9117 -176.922
lowerback 5.89274 0.23382 -3.88012
upperback 4.54751 -0.0459694 -1.40061
thorax 1.38367 -0.180389 0.733378
lowerneck -3.93105 -5.50129 1.5398
upperneck 4.08116 -7.67821 3.79408
head 2.04675 -3.73167 0.702878
rclavicle 1.94809e-014 4.77083e-015
rhumerus -0.00151523 10.906 -67.4686
rradius 131.726
rwrist -28.8058
rhand -33.0922 9.11835
rfingers 7.12502
rthumb -6.30326 -20.7679
lclavicle 1.94809e-014 4.77083e-015
lhumerus -33.3122 13.2554 76.6919
lradius 31.482
lwrist -0.506607
lhand -19.1662 13.5771
lfingers 7.12502
lthumb 7.14475 43.4365
rfemur -5.23501 11.4996 22.3822
rtibia 23.0074
rfoot -34.6862 -31.2608
rtoes -1.84718
lfemur -4.52985 -11.4565 -20.7155
ltibia 25.974
lfoot -29.2239 28.5997
ltoes 11.5921
81
root 7.62384 15.4984 -0.414532 174.496 -58.72 -176.855
lowerback 6.29615 0.219189 -4.09117
upperback 4.64159 -0.107323 -1.46323
thorax 1.26073 -0.220175 0.790126
lowerneck -4.43642 -5.32601 1.41002
upperneck 5.24599 -7.54109 4.14919
head 2.54591 -3.62877 0.809375
rclavicle 4.8901e-014 0
rhumerus -0.573032 10.8317 -67.6778
rradius 131.177
rwrist -28.9922
rhand -33.0526 8.82821
rfingers 7.12502
rthumb -6.26499 -21.0591
lclavicle 4.8901e-014 0
lhumerus -32.8945 12.4946 76.696
lradius 31.3269
lwrist -0.571931
lhand -18.8472 13.5081
lfingers 7.12502
lthumb 7.45268 43.3569
rfemur -5.62552 10.5988 22.266
rtibia 23.2543
rfoot -33.37 -30.8377
rtoes -3.50352
lfemur -4.72525 -10.9981 -20.5689
ltibia 26.0238
lfoot -28.8056 28.4995
ltoes 11.2415
82
root 7.6589 15.5018 -0.391941 174.449 -58.4258 -176.749
lowerback 6.66768 0.211902 -4.31925
upperback 4.73505 -0.160154 -1.52223
thorax 1.15526 -0.256461 0.86008
lowerneck -4.97065 -5.08089 1.38826
upperneck 6.61409 -7.33512 4.3869
head 3.11931 -3.48705 0.865656
rclavicle -5.98342e-014 3.10104e-014
rhumerus -1.078 10.8535 -67.863
rradius 130.554
rwrist -29.0594
rhand -33.0581 8.58252
rfingers 7.12502
rthumb -6.27031 -21.3047
lclavicle -5.98342e-014 3.10104e-014
lhumerus -32.4307 11.719 76.6621
lradius 31.1686
lwrist -0.69807
lhand -18.5205 13.5239
lfingers 7.12502
lthumb 7.76799 43.3612
rfemur -6.13055 9.71394 22.166
rtibia 23.5517
rfoot -31.9878 -30.3538
rtoes -5.21665
lfemur -4.9403 -10.6047 -20.3966
ltibia 26.017
lfoot -28.5314 28.4582
ltoes 11.1928
83
root 7.69791 15.5069 -0.366268 174.472 -58.0299 -176.669
lowerback 6.98356 0.220302 -4.58522
upperback 4.85342 -0.193874 -1.5959
thorax 1.10642 -0.286123 0.934926
lowerneck -5.54334 -4.7678 1.48538
upperneck 8.14884 -7.06616 4.52354
head 3.76228 -3.3102 0.875222
rclavicle 5.12864e-014 1.11319e-014
rhumerus -1.48293 10.9284 -68.0196
rradius 129.871
rwrist -29.0485
rhand -33.1064 8.38659
rfingers 7.12502
rthumb -6.31693 -21.4992
lclavicle 5.12864e-014 1.11319e-014
lhumerus -31.8902 10.9186 76.5908
lradius 31.0361
lwrist -0.867312
lhand -18.2713 13.5839
lfingers 7.12502
lthumb 8.0085 43.4121
rfemur -6.76158 8.82352 22.0493
rtibia 23.9284
rfoot -30.537 -29.7676
rtoes -6.93558
lfemur -5.15449 -10.3083 -20.2384
ltibia 25.922
lfoot -28.4262 28.4833
ltoes 11.5621
84
root 7.74074 15.5147 -0.337391 174.61 -57.5424 -176.674
lowerback 7.28493 0.2495 -4.91605
upperback 4.97429 -0.20632 -1.69452
thorax 1.06813 -0.307504 1.01894
lowerneck -6.08888 -4.39651 1.65297
upperneck 9.80779 -6.74837 4.61904
head 4.45838 -3.10739 0.867708
rclavicle -8.18993e-014 -2.22639e-014
rhumerus -1.82031 11.0459 -68.1465
rradius 129.154
rwrist -28.9983
rhand -33.1794 8.23938
rfingers 7.12502
rthumb -6.38745 -21.6443
lclavicle -8.18993e-014 -2.22639e-014
lhumerus -31.3344 10.0688 76.4795
lradius 30.9741
lwrist -1.02397
lhand -18.1651 13.6585
lfingers 7.12502
lthumb 8.11097 43.4828
rfemur -7.53519 7.91133 21.8818
rtibia 24.4112
rfoot -28.9716 -29.1167
rtoes -8.8834
lfemur -5.34795 -10.1312 -20.1339
ltibia 25.7111
lfoot -28.4904 28.5846
ltoes 12.4076
85
root 7.78703 15.5252 -0.305211 174.859 -56.9709 -176.765
lowerback 7.56208 0.30275 -5.29854
upperback 5.11041 -0.192651 -1.82298
thorax 1.05843 -0.318932 1.09891
lowerneck -6.58254 -3.97664 1.89279
upperneck 11.9434 -6.42342 4.79717
head 4.77294 -2.87553 0.771777
rclavicle -3.4191e-014 -5.24792e-014
rhumerus -2.06671 11.1756 -68.2453
rradius 128.417
rwrist -28.9219
rhand -33.256 8.14305
rfingers 7.12502
rthumb -6.46136 -21.7384
lclavicle -3.4191e-014 -5.24792e-014
lhumerus -30.7698 9.16972 76.3303
lradius 31.0197
lwrist -1.12835
lhand -18.2255 13.723
lfingers 7.12502
lthumb 8.05265 43.5496
rfemur -8.44994 6.95385 21.6682
rtibia 25.0067
rfoot -27.2513 -28.3879
rtoes -11.1473
lfemur -5.51576 -10.0821 -20.0865
ltibia 25.3805
lfoot -28.7188 28.7737
ltoes 13.6985
86
root 7.83642 15.5386 -0.269829 175.165 -56.3218 -176.876
lowerback 7.81117 0.373892 -5.69309
upperback 5.27101 -0.158396 -1.97618
thorax 1.0888 -0.323158 1.15791
lowerneck -7.13193 -3.51262 2.14844
upperneck 13.8902 -6.06046 4.90837
head 5.46212 -2.6387 0.7537
rclavicle 6.89783e-014 -2.22639e-014
rhumerus -2.19512 11.3095 -68.3324
rradius 127.668
rwrist -28.8168
rhand -33.3117 8.08114
rfingers 7.12502
rthumb -6.51517 -21.7986
lclavicle 6.89783e-014 -2.22639e-014
lhumerus -30.199 8.25207 76.1327
lradius 31.1942
lwrist -1.13599
lhand -18.4255 13.7661
lfingers 7.12502
lthumb 7.85963 43.6
rfemur -9.49628 5.95891 21.4494
rtibia 25.696
rfoot -25.3462 -27.561
rtoes -13.6717
lfemur -5.67068 -10.1543 -20.0575
ltibia 24.9524
lfoot -29.0986 29.0526
ltoes 15.3293
87
root 7.88823 15.5546 -0.231663 175.452 -55.5961 -176.915
lowerback 8.03139 0.45049 -6.05495
upperback 5.45074 -0.115748 -2.13245
thorax 1.15445 -0.325025 1.1941
lowerneck -7.6766 -3.00497 2.42176
upperneck 15.8855 -5.67421 5.03298
head 6.17653 -2.38897 0.745328
rclavicle 1.59028e-014 -1.43125e-014
rhumerus -2.20515 11.4729 -68.4139
rradius 126.92
rwrist -28.6741
rhand -33.3392 8.02482
rfingers 7.12502
rthumb -6.54169 -21.8541
lclavicle 1.59028e-014 -1.43125e-014
lhumerus -29.64 7.36869 75.8806
lradius 31.489
lwrist -1.00352
lhand -18.7127 13.7887
lfingers 7.12502
lthumb 7.58246 43.6328
rfemur -10.6492 4.9637 21.2853
rtibia 26.4418
rfoot -23.299 -26.5992
rtoes -16.2747
lfemur -5.83478 -10.3144 -19.9853
ltibia 24.4712
lfoot -29.6098 29.4091
ltoes 17.141
88
root 7.9422 15.5723 -0.191318 175.654 -54.798 -176.809
lowerback 8.23185 0.539823 -6.32585
upperback 5.63223 -0.0500202 -2.27173
thorax 1.23074 -0.314147 1.195
lowerneck -8.1859 -2.47892 2.73274
upperneck 17.9017 -5.28427 5.09487
head 6.90256 -2.14172 0.719223
rclavicle -1.63003e-014 4.77083e-015
rhumerus -2.1679 11.6452 -68.4649
rradius 126.193
rwrist -28.4819
rhand -33.328 7.9661
rfingers 7.12502
rthumb -6.5309 -21.9132
lclavicle -1.63003e-014 4.77083e-015
lhumerus -29.1117 6.5094 75.5988
lradius 31.8739
lwrist -0.722065
lhand -19.0396 13.8004
lfingers 7.12502
lthumb 7.26695 43.6556
rfemur -11.8732 4.01604 21.2285
rtibia 27.2056
rfoot -21.176 -25.4871
rtoes -18.8689
lfemur -6.02415 -10.5245 -19.8157
ltibia 23.9838
lfoot -30.2401 29.819
ltoes 18.9925
89
root 7.99794 15.5908 -0.149544 175.752 -53.9489 -176.55
lowerback 8.42959 0.632823 -6.49761
upperback 5.80805 0.0269562 -2.386
thorax 1.30122 -0.29513 1.16541
lowerneck -8.5875 -1.93484 3.09501
upperneck 19.8545 -4.87088 5.06143
head 7.60101 -1.89383 0.664701
rclavicle 2.3059e-014 5.88403e-014
rhumerus -2.10895 11.84 -68.484
rradius 125.495
rwrist -28.2399
rhand -33.2646 7.91728
rfingers 7.12502
rthumb -6.46961 -21.9639
lclavicle 2.3059e-014 5.88403e-014
lhumerus -28.6192 5.69628 75.2862
lradius 32.3124
lwrist -0.297878
lhand -19.3622 13.8083
lfingers 7.12502
lthumb 6.9555 43.674
rfemur -13.1293 3.13283 21.2909
rtibia 27.9643
rfoot -19.0764 -24.2216
rtoes -21.4551
lfemur -6.24206 -10.7675 -19.5344
ltibia 23.5226
lfoot -30.9708 30.2576
ltoes 20.7864
90
root 8.05436 15.6092 -0.107458 175.778 -53.0776 -176.19
lowerback 8.62024 0.729437 -6.58626
upperback 5.98148 0.114888 -2.47903
thorax 1.37201 -0.268522 1.11042
lowerneck -8.84054 -1.38279 3.50649
upperneck 21.6854 -4.42887 4.92051
head 8.24551 -1.64734 0.576893
rclavicle 1.10922e-013 -4.13472e-014
rhumerus -2.0525 12.0421 -68.4661
rradius 124.832
rwrist -27.9568
rhand -33.1423 7.89279
rfingers 7.12502
rthumb -6.35162 -21.992
lclavicle 1.10922e-013 -4.13472e-014
lhumerus -28.1508 4.9134 74.9596
lradius 32.7723
lwrist 0.242975
lhand -19.6438 13.8146
lfingers 7.12502
lthumb 6.68373 43.6891
rfemur -14.3804 2.32123 21.4403
rtibia 28.7135
rfoot -17.1002 -22.8208
rtoes -24.0721
lfemur -6.46975 -11.0369 -19.1741
ltibia 23.0913
lfoot -31.7793 30.7027
ltoes 22.4862
91
root 8.11082 15.6263 -0.0662635 175.791 -52.2168 -175.828
lowerback 8.8147 0.829792 -6.64863
upperback 6.15512 0.208476 -2.56093
thorax 1.44071 -0.238716 1.05152
lowerneck -8.95431 -0.830336 3.96774
upperneck 23.3879 -3.95848 4.66595
head 8.83464 -1.40355 0.450434
rclavicle -9.14409e-015 -4.29375e-014
rhumerus -2.01711 12.2454 -68.4166
rradius 124.209
rwrist -27.64
rhand -32.9607 7.91461
rfingers 7.12502
rthumb -6.17624 -21.9754
lclavicle -9.14409e-015 -4.29375e-014
lhumerus -27.7084 4.14042 74.6321
lradius 33.2415
lwrist 0.862717
lhand -19.8569 13.8355
lfingers 7.12502
lthumb 6.47799 43.7165
rfemur -15.5862 1.58701 21.614
rtibia 29.4573
rfoot -15.3591 -21.2984
rtoes -26.5772
lfemur -6.67958 -11.3328 -18.8006
ltibia 22.679
lfoot -32.6656 31.1164
ltoes 24.1602
